<?xml version="1.0" standalone="no"?>
<!DOCTYPE svg PUBLIC "-//W3C//DTD SVG 20010904//EN"
 "http://www.w3.org/TR/2001/REC-SVG-20010904/DTD/svg10.dtd">
<svg version="1.0" xmlns="http://www.w3.org/2000/svg"
 width="500.000000pt" height="500.000000pt" viewBox="0 0 500.000000 500.000000"
 preserveAspectRatio="xMidYMid meet">
<metadata>
Created by potrace 1.11, written by Peter Selinger 2001-2013
</metadata>
<g transform="translate(0.000000,500.000000) scale(0.100000,-0.100000)"
fill="#000000" stroke="none">
<path d="M0 2500 l0 -2500 2500 0 2500 0 0 2500 0 2500 -2500 0 -2500 0 0
-2500z m1245 902 c217 -59 359 -193 410 -389 9 -33 15 -102 15 -164 0 -184
-51 -327 -153 -428 -135 -133 -254 -170 -549 -171 l-138 0 0 -270 0 -270 -170
0 -170 0 0 853 c0 470 3 857 8 861 4 4 156 6 337 3 298 -4 338 -6 410 -25z
m1455 4 c169 -40 295 -133 338 -249 66 -175 22 -372 -109 -490 l-60 -55 57
-32 c78 -44 151 -121 188 -200 29 -60 31 -73 31 -175 0 -88 -5 -123 -23 -175
-50 -145 -157 -235 -344 -291 -68 -21 -97 -23 -435 -27 l-363 -4 0 862 0 862
323 -4 c264 -4 335 -8 397 -22z m1860 -141 l0 -165 -365 0 -365 0 0 -195 0
-195 315 0 315 0 0 -165 0 -165 -315 0 -315 0 0 -335 0 -335 -170 0 -170 0 0
860 0 860 535 0 535 0 0 -165z"/>
<path d="M830 2840 l0 -262 158 4 c121 3 166 8 197 22 90 39 148 133 149 243
0 50 -6 73 -35 130 -28 55 -42 73 -79 93 -42 23 -55 25 -217 28 l-173 4 0
-262z"/>
<path d="M2320 2915 l0 -185 130 0 c153 0 185 10 229 70 53 73 53 175 0 235
-44 49 -101 65 -241 65 l-118 0 0 -185z"/>
<path d="M2320 2216 l0 -186 148 0 c157 0 200 7 252 43 49 33 72 70 77 124 9
86 -36 150 -127 183 -19 7 -106 15 -192 17 l-158 6 0 -187z"/>
</g>
</svg>
